<svg width="454" height="454" viewBox="0 0 454 454" fill="none" xmlns="http://www.w3.org/2000/svg">
<g clip-path="url(#clip0_244_225)">
<path d="M181.131 328.121H149.703L133.988 355.384L149.703 382.638H181.131L196.845 355.384L181.131 328.121Z" fill="#B9E4F4"/>
<path d="M221.217 351.199H222.604L223.297 352.4L222.604 353.601H221.217L220.524 352.4L221.217 351.199ZM221.217 355.61H222.604L223.297 356.811L222.604 358.012H221.217L220.524 356.811L221.217 355.61ZM221.217 360.021H222.604L223.297 361.222L222.604 362.423H221.217L220.524 361.222L221.217 360.021ZM221.217 364.431H222.604L223.297 365.633L222.604 366.834H221.217L220.524 365.633L221.217 364.431ZM221.217 368.842H222.604L223.297 370.044L222.604 371.245H221.217L220.524 370.044L221.217 368.842ZM214.873 342.358H216.26L216.954 343.56L216.26 344.761H214.873L214.18 343.56L214.873 342.358ZM214.873 346.769H216.26L216.954 347.971L216.26 349.172H214.873L214.18 347.971L214.873 346.769ZM214.873 351.18H216.26L216.954 352.381L216.26 353.583H214.873L214.18 352.381L214.873 351.18ZM214.873 355.591H216.26L216.954 356.792L216.26 357.993H214.873L214.18 356.792L214.873 355.591ZM214.873 360.002H216.26L216.954 361.203L216.26 362.404H214.873L214.18 361.203L214.873 360.002ZM214.873 364.413H216.26L216.954 365.614L216.26 366.815H214.873L214.18 365.614L214.873 364.413ZM214.873 368.824H216.26L216.954 370.025L216.26 371.226H214.873L214.18 370.025L214.873 368.824ZM214.873 373.234H216.26L216.954 374.436L216.26 375.637H214.873L214.18 374.436L214.873 373.234ZM214.873 377.645H216.26L216.954 378.847L216.26 380.048H214.873L214.18 378.847L214.873 377.645ZM166.662 362.395H165.275L164.582 361.194L165.275 359.992H166.662L167.356 361.194L166.662 362.395ZM171.854 371.226H170.467L169.773 370.025L170.467 368.824H171.854L172.547 370.025L171.854 371.226ZM171.854 366.815H170.467L169.773 365.614L170.467 364.413H171.854L172.547 365.614L171.854 366.815ZM171.854 362.404H170.467L169.773 361.203L170.467 360.002H171.854L172.547 361.203L171.854 362.404ZM171.854 357.993H170.467L169.773 356.792L170.467 355.591H171.854L172.547 356.792L171.854 357.993ZM171.854 353.583H170.467L169.773 352.381L170.467 351.18H171.854L172.547 352.381L171.854 353.583ZM178.197 380.067H176.811L176.117 378.865L176.811 377.664H178.197L178.891 378.865L178.197 380.067ZM178.197 375.656H176.811L176.117 374.454L176.811 373.253H178.197L178.891 374.454L178.197 375.656ZM178.197 371.245H176.811L176.117 370.044L176.811 368.842H178.197L178.891 370.044L178.197 371.245ZM178.197 366.834H176.811L176.117 365.633L176.811 364.431H178.197L178.891 365.633L178.197 366.834ZM178.197 362.423H176.811L176.117 361.222L176.811 360.021H178.197L178.891 361.222L178.197 362.423ZM178.197 358.012H176.811L176.117 356.811L176.811 355.61H178.197L178.891 356.811L178.197 358.012ZM178.197 353.601H176.811L176.117 352.4L176.811 351.199H178.197L178.891 352.4L178.197 353.601ZM178.197 349.191H176.811L176.117 347.989L176.811 346.788H178.197L178.891 347.989L178.197 349.191ZM178.197 344.78H176.811L176.117 343.578L176.811 342.377H178.197L178.891 343.578L178.197 344.78ZM184.541 388.926H183.154L182.461 387.725L183.154 386.523H184.541L185.235 387.725L184.541 388.926ZM184.541 384.515H183.154L182.461 383.314L183.154 382.112H184.541L185.235 383.314L184.541 384.515ZM184.541 380.104H183.154L182.461 378.903L183.154 377.702H184.541L185.235 378.903L184.541 380.104ZM184.541 375.693H183.154L182.461 374.492L183.154 373.291H184.541L185.235 374.492L184.541 375.693ZM184.541 371.282H183.154L182.461 370.081L183.154 368.88H184.541L185.235 370.081L184.541 371.282ZM184.541 366.872H183.154L182.461 365.67L183.154 364.469H184.541L185.235 365.67L184.541 366.872ZM184.541 362.461H183.154L182.461 361.259L183.154 360.058H184.541L185.235 361.259L184.541 362.461ZM184.541 358.05H183.154L182.461 356.849L183.154 355.647H184.541L185.235 356.849L184.541 358.05ZM184.541 353.639H183.154L182.461 352.438L183.154 351.236H184.541L185.235 352.438L184.541 353.639ZM184.541 349.228H183.154L182.461 348.027L183.154 346.826H184.541L185.235 348.027L184.541 349.228ZM184.541 344.817H183.154L182.461 343.616L183.154 342.415H184.541L185.235 343.616L184.541 344.817ZM184.541 340.406H183.154L182.461 339.205L183.154 338.004H184.541L185.235 339.205L184.541 340.406ZM184.541 335.995H183.154L182.461 334.794L183.154 333.593H184.541L185.235 334.794L184.541 335.995ZM190.885 388.963H189.498L188.805 387.762L189.498 386.561H190.885L191.578 387.762L190.885 388.963ZM190.885 384.553H189.498L188.805 383.351L189.498 382.15H190.885L191.578 383.351L190.885 384.553ZM190.885 380.142H189.498L188.805 378.94L189.498 377.739H190.885L191.578 378.94L190.885 380.142ZM190.885 375.731H189.498L188.805 374.53L189.498 373.328H190.885L191.578 374.53L190.885 375.731ZM190.885 371.32H189.498L188.805 370.119L189.498 368.917H190.885L191.578 370.119L190.885 371.32ZM190.885 366.909H189.498L188.805 365.708L189.498 364.507H190.885L191.578 365.708L190.885 366.909ZM190.885 362.498H189.498L188.805 361.297L189.498 360.096H190.885L191.578 361.297L190.885 362.498ZM190.885 358.087H189.498L188.805 356.886L189.498 355.685H190.885L191.578 356.886L190.885 358.087ZM190.885 353.676H189.498L188.805 352.475L189.498 351.274H190.885L191.578 352.475L190.885 353.676ZM190.885 349.266H189.498L188.805 348.064L189.498 346.863H190.885L191.578 348.064L190.885 349.266ZM190.885 344.855H189.498L188.805 343.653L189.498 342.452H190.885L191.578 343.653L190.885 344.855ZM190.885 340.444H189.498L188.805 339.243L189.498 338.041H190.885L191.578 339.243L190.885 340.444ZM190.885 336.033H189.498L188.805 334.832L189.498 333.631H190.885L191.578 334.832L190.885 336.033ZM197.229 389.001H195.842L195.149 387.8L195.842 386.598H197.229L197.922 387.8L197.229 389.001ZM197.229 384.59H195.842L195.149 383.389L195.842 382.188H197.229L197.922 383.389L197.229 384.59ZM197.229 380.179H195.842L195.149 378.978L195.842 377.777H197.229L197.922 378.978L197.229 380.179ZM197.229 375.768H195.842L195.149 374.567L195.842 373.366H197.229L197.922 374.567L197.229 375.768ZM197.229 371.357H195.842L195.149 370.156L195.842 368.955H197.229L197.922 370.156L197.229 371.357ZM197.229 366.947H195.842L195.149 365.745L195.842 364.544H197.229L197.922 365.745L197.229 366.947ZM197.229 362.536H195.842L195.149 361.334L195.842 360.133H197.229L197.922 361.334L197.229 362.536ZM197.229 358.125H195.842L195.149 356.924L195.842 355.722H197.229L197.922 356.924L197.229 358.125ZM197.229 353.714H195.842L195.149 352.513L195.842 351.311H197.229L197.922 352.513L197.229 353.714ZM197.229 349.303H195.842L195.149 348.102L195.842 346.901H197.229L197.922 348.102L197.229 349.303ZM197.229 344.892H195.842L195.149 343.691L195.842 342.49H197.229L197.922 343.691L197.229 344.892ZM197.229 340.481H195.842L195.149 339.28L195.842 338.079H197.229L197.922 339.28L197.229 340.481ZM197.229 336.071H195.842L195.149 334.869L195.842 333.668H197.229L197.922 334.869L197.229 336.071ZM203.573 389.038H202.186L201.492 387.837L202.186 386.636H203.573L204.266 387.837L203.573 389.038ZM203.573 384.628H202.186L201.492 383.426L202.186 382.225H203.573L204.266 383.426L203.573 384.628ZM203.573 380.217H202.186L201.492 379.015L202.186 377.814H203.573L204.266 379.015L203.573 380.217ZM203.573 375.806H202.186L201.492 374.605L202.186 373.403H203.573L204.266 374.605L203.573 375.806ZM203.573 371.395H202.186L201.492 370.194L202.186 368.992H203.573L204.266 370.194L203.573 371.395ZM203.573 366.984H202.186L201.492 365.783L202.186 364.582H203.573L204.266 365.783L203.573 366.984ZM203.573 362.573H202.186L201.492 361.372L202.186 360.171H203.573L204.266 361.372L203.573 362.573ZM203.573 358.162H202.186L201.492 356.961L202.186 355.76H203.573L204.266 356.961L203.573 358.162ZM203.573 353.752H202.186L201.492 352.55L202.186 351.349H203.573L204.266 352.55L203.573 353.752ZM203.573 349.341H202.186L201.492 348.139L202.186 346.938H203.573L204.266 348.139L203.573 349.341ZM203.573 344.93H202.186L201.492 343.729L202.186 342.527H203.573L204.266 343.729L203.573 344.93ZM203.573 340.519H202.186L201.492 339.318L202.186 338.116H203.573L204.266 339.318L203.573 340.519ZM203.573 336.108H202.186L201.492 334.907L202.186 333.706H203.573L204.266 334.907L203.573 336.108ZM209.916 389.076H208.53L207.836 387.875L208.53 386.673H209.916L210.61 387.875L209.916 389.076ZM209.916 384.665H208.53L207.836 383.464L208.53 382.263H209.916L210.61 383.464L209.916 384.665ZM209.916 380.254H208.53L207.836 379.053L208.53 377.852H209.916L210.61 379.053L209.916 380.254ZM209.916 375.843H208.53L207.836 374.642L208.53 373.441H209.916L210.61 374.642L209.916 375.843ZM209.916 371.433H208.53L207.836 370.231L208.53 369.03H209.916L210.61 370.231L209.916 371.433ZM209.916 367.022H208.53L207.836 365.82L208.53 364.619H209.916L210.61 365.82L209.916 367.022ZM209.916 362.611H208.53L207.836 361.41L208.53 360.208H209.916L210.61 361.41L209.916 362.611ZM209.916 358.2H208.53L207.836 356.999L208.53 355.797H209.916L210.61 356.999L209.916 358.2ZM209.916 353.789H208.53L207.836 352.588L208.53 351.387H209.916L210.61 352.588L209.916 353.789ZM209.916 349.378H208.53L207.836 348.177L208.53 346.976H209.916L210.61 348.177L209.916 349.378ZM209.916 344.967H208.53L207.836 343.766L208.53 342.565H209.916L210.61 343.766L209.916 344.967ZM209.916 340.557H208.53L207.836 339.355L208.53 338.154H209.916L210.61 339.355L209.916 340.557ZM209.916 336.146H208.53L207.836 334.944L208.53 333.743H209.916L210.61 334.944L209.916 336.146Z" fill="white"/>
<path d="M183.154 386.514L182.461 387.715L183.154 388.916H184.541L185.225 387.715L184.541 386.514H183.154Z" fill="white"/>
<path d="M189.498 386.514L188.805 387.715L189.498 388.916H190.885L191.569 387.715L190.885 386.514H189.498Z" fill="white"/>
<path d="M195.842 386.514L195.148 387.715L195.842 388.916H197.229L197.913 387.715L197.229 386.514H195.842Z" fill="white"/>
<path d="M202.186 386.514L201.492 387.715L202.186 388.916H203.563L204.256 387.715L203.563 386.514H202.186Z" fill="white"/>
<path d="M208.529 386.514L207.836 387.715L208.529 388.916H209.907L210.6 387.715L209.907 386.514H208.529Z" fill="white"/>
<path d="M183.154 382.103L182.461 383.304L183.154 384.505H184.541L185.225 383.304L184.541 382.103H183.154Z" fill="white"/>
<path d="M189.498 382.103L188.805 383.304L189.498 384.505H190.885L191.569 383.304L190.885 382.103H189.498Z" fill="white"/>
<path d="M195.842 382.103L195.148 383.304L195.842 384.505H197.229L197.913 383.304L197.229 382.103H195.842Z" fill="white"/>
<path d="M202.186 382.103L201.492 383.304L202.186 384.505H203.563L204.256 383.304L203.563 382.103H202.186Z" fill="white"/>
<path d="M208.529 382.103L207.836 383.304L208.529 384.505H209.907L210.6 383.304L209.907 382.103H208.529Z" fill="white"/>
<path d="M176.811 377.683L176.117 378.884L176.811 380.085H178.197L178.891 378.884L178.197 377.683H176.811Z" fill="white"/>
<path d="M183.154 377.683L182.461 378.884L183.154 380.085H184.541L185.225 378.884L184.541 377.683H183.154Z" fill="white"/>
<path d="M189.498 377.683L188.805 378.884L189.498 380.085H190.885L191.569 378.884L190.885 377.683H189.498Z" fill="white"/>
<path d="M195.842 377.683L195.148 378.884L195.842 380.085H197.229L197.913 378.884L197.229 377.683H195.842Z" fill="white"/>
<path d="M202.186 377.683L201.492 378.884L202.186 380.085H203.563L204.256 378.884L203.563 377.683H202.186Z" fill="white"/>
<path d="M208.529 377.683L207.836 378.884L208.529 380.085H209.907L210.6 378.884L209.907 377.683H208.529Z" fill="white"/>
<path d="M216.251 380.085L216.944 378.884L216.251 377.683H214.873L214.18 378.884L214.873 380.085H216.251Z" fill="white"/>
<path d="M176.811 373.272L176.117 374.473L176.811 375.674H178.197L178.891 374.473L178.197 373.272H176.811Z" fill="white"/>
<path d="M183.154 373.272L182.461 374.473L183.154 375.674H184.541L185.225 374.473L184.541 373.272H183.154Z" fill="white"/>
<path d="M189.498 373.272L188.805 374.473L189.498 375.674H190.885L191.569 374.473L190.885 373.272H189.498Z" fill="white"/>
<path d="M195.842 373.272L195.148 374.473L195.842 375.674H197.229L197.913 374.473L197.229 373.272H195.842Z" fill="white"/>
<path d="M202.186 373.272L201.492 374.473L202.186 375.674H203.563L204.256 374.473L203.563 373.272H202.186Z" fill="white"/>
<path d="M208.529 373.272L207.836 374.473L208.529 375.674H209.907L210.6 374.473L209.907 373.272H208.529Z" fill="white"/>
<path d="M216.251 375.674L216.944 374.473L216.251 373.272H214.873L214.18 374.473L214.873 375.674H216.251Z" fill="white"/>
<path d="M170.467 368.861L169.773 370.062L170.467 371.263H171.854L172.547 370.062L171.854 368.861H170.467Z" fill="white"/>
<path d="M176.811 368.861L176.117 370.062L176.811 371.263H178.197L178.891 370.062L178.197 368.861H176.811Z" fill="white"/>
<path d="M183.154 368.861L182.461 370.062L183.154 371.263H184.541L185.225 370.062L184.541 368.861H183.154Z" fill="white"/>
<path d="M189.498 368.861L188.805 370.062L189.498 371.263H190.885L191.569 370.062L190.885 368.861H189.498Z" fill="white"/>
<path d="M195.842 368.861L195.148 370.062L195.842 371.263H197.229L197.913 370.062L197.229 368.861H195.842Z" fill="white"/>
<path d="M202.186 368.861L201.492 370.062L202.186 371.263H203.563L204.256 370.062L203.563 368.861H202.186Z" fill="white"/>
<path d="M208.529 368.861L207.836 370.062L208.529 371.263H209.907L210.6 370.062L209.907 368.861H208.529Z" fill="white"/>
<path d="M216.251 371.263L216.944 370.062L216.251 368.861H214.873L214.18 370.062L214.873 371.263H216.251Z" fill="white"/>
<path d="M222.594 371.263L223.288 370.062L222.594 368.861H221.217L220.523 370.062L221.217 371.263H222.594Z" fill="white"/>
<path d="M170.467 364.441L169.773 365.642L170.467 366.843H171.854L172.547 365.642L171.854 364.441H170.467Z" fill="white"/>
<path d="M176.811 364.441L176.117 365.642L176.811 366.843H178.197L178.891 365.642L178.197 364.441H176.811Z" fill="white"/>
<path d="M183.154 364.441L182.461 365.642L183.154 366.843H184.541L185.225 365.642L184.541 364.441H183.154Z" fill="white"/>
<path d="M189.498 364.441L188.805 365.642L189.498 366.843H190.885L191.569 365.642L190.885 364.441H189.498Z" fill="white"/>
<path d="M195.842 364.441L195.148 365.642L195.842 366.843H197.229L197.913 365.642L197.229 364.441H195.842Z" fill="white"/>
<path d="M202.186 364.441L201.492 365.642L202.186 366.843H203.563L204.256 365.642L203.563 364.441H202.186Z" fill="white"/>
<path d="M208.529 364.441L207.836 365.642L208.529 366.843H209.907L210.6 365.642L209.907 364.441H208.529Z" fill="white"/>
<path d="M216.251 366.843L216.944 365.642L216.251 364.441H214.873L214.18 365.642L214.873 366.843H216.251Z" fill="white"/>
<path d="M222.594 366.843L223.288 365.642L222.594 364.441H221.217L220.523 365.642L221.217 366.843H222.594Z" fill="white"/>
<path d="M170.467 360.03L169.773 361.231L170.467 362.432H171.854L172.547 361.231L171.854 360.03H170.467Z" fill="white"/>
<path d="M176.811 360.03L176.117 361.231L176.811 362.432H178.197L178.891 361.231L178.197 360.03H176.811Z" fill="white"/>
<path d="M183.154 360.03L182.461 361.231L183.154 362.432H184.541L185.225 361.231L184.541 360.03H183.154Z" fill="white"/>
<path d="M189.498 360.03L188.805 361.231L189.498 362.432H190.885L191.569 361.231L190.885 360.03H189.498Z" fill="white"/>
<path d="M195.842 360.03L195.148 361.231L195.842 362.432H197.229L197.913 361.231L197.229 360.03H195.842Z" fill="white"/>
<path d="M202.186 360.03L201.492 361.231L202.186 362.432H203.563L204.256 361.231L203.563 360.03H202.186Z" fill="white"/>
<path d="M208.529 360.03L207.836 361.231L208.529 362.432H209.907L210.6 361.231L209.907 360.03H208.529Z" fill="white"/>
<path d="M216.251 362.432L216.944 361.231L216.251 360.03H214.873L214.18 361.231L214.873 362.432H216.251Z" fill="white"/>
<path d="M222.594 362.432L223.288 361.231L222.594 360.03H221.217L220.523 361.231L221.217 362.432H222.594Z" fill="white"/>
<path d="M170.467 355.619L169.773 356.82L170.467 358.021H171.854L172.547 356.82L171.854 355.619H170.467Z" fill="white"/>
<path d="M176.811 355.619L176.117 356.82L176.811 358.021H178.197L178.891 356.82L178.197 355.619H176.811Z" fill="white"/>
<path d="M183.154 355.619L182.461 356.82L183.154 358.021H184.541L185.225 356.82L184.541 355.619H183.154Z" fill="white"/>
<path d="M189.498 355.619L188.805 356.82L189.498 358.021H190.885L191.569 356.82L190.885 355.619H189.498Z" fill="white"/>
<path d="M195.842 355.619L195.148 356.82L195.842 358.021H197.229L197.913 356.82L197.229 355.619H195.842Z" fill="white"/>
<path d="M202.186 355.619L201.492 356.82L202.186 358.021H203.563L204.256 356.82L203.563 355.619H202.186Z" fill="white"/>
<path d="M208.529 355.619L207.836 356.82L208.529 358.021H209.907L210.6 356.82L209.907 355.619H208.529Z" fill="white"/>
<path d="M216.251 358.021L216.944 356.82L216.251 355.619H214.873L214.18 356.82L214.873 358.021H216.251Z" fill="white"/>
<path d="M222.594 358.021L223.288 356.82L222.594 355.619H221.217L220.523 356.82L221.217 358.021H222.594Z" fill="white"/>
<path d="M170.467 351.199L169.773 352.4L170.467 353.601H171.854L172.547 352.4L171.854 351.199H170.467Z" fill="white"/>
<path d="M176.811 351.199L176.117 352.4L176.811 353.601H178.197L178.891 352.4L178.197 351.199H176.811Z" fill="white"/>
<path d="M183.154 351.199L182.461 352.4L183.154 353.601H184.541L185.225 352.4L184.541 351.199H183.154Z" fill="white"/>
<path d="M189.498 351.199L188.805 352.4L189.498 353.601H190.885L191.569 352.4L190.885 351.199H189.498Z" fill="white"/>
<path d="M195.842 351.199L195.148 352.4L195.842 353.601H197.229L197.913 352.4L197.229 351.199H195.842Z" fill="white"/>
<path d="M202.186 351.199L201.492 352.4L202.186 353.601H203.563L204.256 352.4L203.563 351.199H202.186Z" fill="white"/>
<path d="M208.529 351.199L207.836 352.4L208.529 353.601H209.907L210.6 352.4L209.907 351.199H208.529Z" fill="white"/>
<path d="M216.251 353.601L216.944 352.4L216.251 351.199H214.873L214.18 352.4L214.873 353.601H216.251Z" fill="white"/>
<path d="M222.594 353.601L223.288 352.4L222.594 351.199H221.217L220.523 352.4L221.217 353.601H222.594Z" fill="white"/>
<path d="M176.811 346.788L176.117 347.989L176.811 349.19H178.197L178.891 347.989L178.197 346.788H176.811Z" fill="white"/>
<path d="M183.154 346.788L182.461 347.989L183.154 349.19H184.541L185.225 347.989L184.541 346.788H183.154Z" fill="white"/>
<path d="M189.498 346.788L188.805 347.989L189.498 349.19H190.885L191.569 347.989L190.885 346.788H189.498Z" fill="white"/>
<path d="M195.842 346.788L195.148 347.989L195.842 349.19H197.229L197.913 347.989L197.229 346.788H195.842Z" fill="white"/>
<path d="M202.186 346.788L201.492 347.989L202.186 349.19H203.563L204.256 347.989L203.563 346.788H202.186Z" fill="white"/>
<path d="M208.529 346.788L207.836 347.989L208.529 349.19H209.907L210.6 347.989L209.907 346.788H208.529Z" fill="white"/>
<path d="M216.251 349.19L216.944 347.989L216.251 346.788H214.873L214.18 347.989L214.873 349.19H216.251Z" fill="white"/>
<path d="M176.811 342.368L176.117 343.569L176.811 344.77H178.197L178.891 343.569L178.197 342.368H176.811Z" fill="white"/>
<path d="M183.154 342.368L182.461 343.569L183.154 344.77H184.541L185.225 343.569L184.541 342.368H183.154Z" fill="white"/>
<path d="M189.498 342.368L188.805 343.569L189.498 344.77H190.885L191.569 343.569L190.885 342.368H189.498Z" fill="white"/>
<path d="M195.842 342.368L195.148 343.569L195.842 344.77H197.229L197.913 343.569L197.229 342.368H195.842Z" fill="white"/>
<path d="M202.186 342.368L201.492 343.569L202.186 344.77H203.563L204.256 343.569L203.563 342.368H202.186Z" fill="white"/>
<path d="M208.529 342.368L207.836 343.569L208.529 344.77H209.907L210.6 343.569L209.907 342.368H208.529Z" fill="white"/>
<path d="M216.251 344.77L216.944 343.569L216.251 342.368H214.873L214.18 343.569L214.873 344.77H216.251Z" fill="white"/>
<path d="M183.154 337.957L182.461 339.158L183.154 340.359H184.541L185.225 339.158L184.541 337.957H183.154Z" fill="white"/>
<path d="M189.498 337.957L188.805 339.158L189.498 340.359H190.885L191.569 339.158L190.885 337.957H189.498Z" fill="white"/>
<path d="M195.842 337.957L195.148 339.158L195.842 340.359H197.229L197.913 339.158L197.229 337.957H195.842Z" fill="white"/>
<path d="M202.186 337.957L201.492 339.158L202.186 340.359H203.563L204.256 339.158L203.563 337.957H202.186Z" fill="white"/>
<path d="M208.529 337.957L207.836 339.158L208.529 340.359H209.907L210.6 339.158L209.907 337.957H208.529Z" fill="white"/>
<path d="M183.154 333.546L182.461 334.747L183.154 335.948H184.541L185.225 334.747L184.541 333.546H183.154Z" fill="white"/>
<path d="M189.498 333.546L188.805 334.747L189.498 335.948H190.885L191.569 334.747L190.885 333.546H189.498Z" fill="white"/>
<path d="M195.842 333.546L195.148 334.747L195.842 335.948H197.229L197.913 334.747L197.229 333.546H195.842Z" fill="white"/>
<path d="M202.186 333.546L201.492 334.747L202.186 335.948H203.563L204.256 334.747L203.563 333.546H202.186Z" fill="white"/>
<path d="M208.529 333.546L207.836 334.747L208.529 335.948H209.907L210.6 334.747L209.907 333.546H208.529Z" fill="white"/>
<path d="M225.816 361.231L226.51 362.432H227.822L228.534 361.184L227.878 360.03H226.51L225.816 361.231Z" fill="white"/>
<path d="M165.275 360.03L164.582 361.231L165.275 362.432H166.662L167.356 361.231L166.662 360.03H165.275Z" fill="white"/>
<path d="M442.36 0.122009L168.742 453.878" stroke="#B9E4F4" stroke-width="0.5" stroke-miterlimit="10"/>
<path d="M412.58 327.183H381.152L365.438 354.446L381.152 381.699H412.58L428.295 354.446L412.58 327.183Z" fill="#F4F4F4"/>
<path d="M113.371 73.7928L92.7282 94.4582L89.6641 99.7794L115.611 73.7928H113.371Z" fill="#B9E4F4"/>
<path d="M137.408 73.7928L62.3789 148.928L63.2035 150.354L139.648 73.7928H137.408Z" fill="#B9E4F4"/>
<path d="M185.479 73.7928L79.9766 179.457L80.8012 180.874L187.718 73.7928H185.479Z" fill="#B9E4F4"/>
<path d="M201.691 93.6699L93.1719 202.346L93.9965 203.773L202.507 95.087L201.691 93.6699Z" fill="#B9E4F4"/>
<path d="M214.882 116.559L109.352 222.251H111.591L215.697 117.986L214.882 116.559Z" fill="#B9E4F4"/>
<path d="M228.078 139.449L145.402 222.251H147.651L228.903 140.876L228.078 139.449Z" fill="#B9E4F4"/>
<path d="M218.633 172.99L169.438 222.251H171.686L215.568 178.302L218.633 172.99Z" fill="#B9E4F4"/>
<path d="M199.152 206.776L202.217 201.464L181.461 222.251H183.7L199.152 206.776Z" fill="#B9E4F4"/>
<path d="M125.387 73.7928L76.3142 122.941L73.25 128.253L127.627 73.7928H125.387Z" fill="#B9E4F4"/>
<path d="M149.42 73.7928L66.7812 156.558L67.5965 157.984L151.668 73.7928H149.42Z" fill="#B9E4F4"/>
<path d="M161.446 73.7928L71.1797 164.197L72.0043 165.614L163.685 73.7928H161.446Z" fill="#B9E4F4"/>
<path d="M173.458 73.7928L75.5742 171.827L76.3988 173.244L175.707 73.7928H173.458Z" fill="#B9E4F4"/>
<path d="M192.891 78.4008L84.3711 187.086L85.1957 188.513L193.706 79.8273L192.891 78.4008Z" fill="#B9E4F4"/>
<path d="M206.084 101.3L97.5742 209.976L98.3895 211.402L206.909 102.717L206.084 101.3Z" fill="#B9E4F4"/>
<path d="M219.279 124.189L121.367 222.251H123.616L220.104 125.616L219.279 124.189Z" fill="#B9E4F4"/>
<path d="M233.023 148.017L232.479 147.079L157.422 222.251H159.661L231.983 149.819L233.023 148.017Z" fill="#B9E4F4"/>
<path d="M197.288 86.04L88.7773 194.716L89.5926 196.143L198.112 87.4571L197.288 86.04Z" fill="#B9E4F4"/>
<path d="M210.479 108.93L101.969 217.606L102.793 219.032L211.304 110.356L210.479 108.93Z" fill="#B9E4F4"/>
<path d="M223.681 131.819L133.387 222.251H135.626L224.496 133.246L223.681 131.819Z" fill="#B9E4F4"/>
<path d="M434.313 58.0451H407.926L394.723 80.9441L407.926 103.834H434.313L447.516 80.9441L434.313 58.0451Z" fill="#00ADEE"/>
<path d="M413.236 90.892H400.914L394.758 101.581L400.914 112.271H413.236L419.402 101.581L413.236 90.892Z" fill="#B9E4F4"/>
<path d="M435.588 366.374H421.111L413.867 353.817L421.111 341.26H435.588L442.822 353.817L435.588 366.374ZM423.837 361.625H432.852L437.359 353.808L432.852 345.99H423.847L419.34 353.808L423.847 361.625H423.837Z" fill="#00ADEE"/>
<path d="M389.493 205.237C404.625 205.237 416.892 192.951 416.892 177.795C416.892 162.64 404.625 150.354 389.493 150.354C374.361 150.354 362.094 162.64 362.094 177.795C362.094 192.951 374.361 205.237 389.493 205.237Z" fill="white" stroke="#354185" stroke-width="4" stroke-miterlimit="10"/>
<path d="M401.785 172.352L388.432 164.056C386.624 162.93 384.431 162.883 382.576 163.915C380.721 164.948 379.605 166.843 379.605 168.974V185.575C379.605 187.706 380.711 189.592 382.576 190.634C383.447 191.122 384.413 191.375 385.387 191.375C386.455 191.375 387.505 191.075 388.432 190.493L401.785 182.197C403.491 181.136 404.512 179.297 404.512 177.279C404.512 175.262 403.491 173.432 401.785 172.362V172.352ZM400.942 177.27C400.942 178.039 400.549 178.743 399.902 179.147L386.549 187.443C385.856 187.875 385.022 187.894 384.319 187.499C383.607 187.105 383.185 186.383 383.185 185.566V168.964C383.185 168.148 383.607 167.435 384.319 167.04C384.647 166.853 385.022 166.759 385.396 166.759C385.799 166.759 386.202 166.872 386.558 167.097L399.911 175.393C400.567 175.796 400.951 176.5 400.951 177.27H400.942Z" fill="#00ADEE"/>
<path d="M234.364 102.829C234.355 102.942 234.345 103.045 234.336 103.158C234.261 103.806 234.111 104.416 233.895 104.979C233.68 105.542 233.343 106.011 232.902 106.386C232.471 106.762 231.89 106.949 231.159 106.949C230.428 106.949 229.857 106.762 229.416 106.386C229.098 106.114 228.835 105.786 228.629 105.41C228.32 105.607 228.011 105.814 227.711 106.02C228.02 106.527 228.414 106.959 228.901 107.297C229.482 107.7 230.232 107.897 231.15 107.897C232.068 107.897 232.837 107.7 233.408 107.297C233.98 106.893 234.43 106.386 234.748 105.748C235.067 105.119 235.282 104.416 235.404 103.637C235.46 103.252 235.507 102.867 235.535 102.492C235.142 102.595 234.748 102.707 234.355 102.829H234.364Z" fill="#00ADEE"/>
<path d="M241.316 101.563V107.635H242.46V101.506C242.085 101.516 241.701 101.534 241.316 101.563Z" fill="#00ADEE"/>
<path d="M254.538 102.745C254.528 102.886 254.519 103.017 254.5 103.158C254.425 103.805 254.275 104.416 254.06 104.979C253.844 105.542 253.507 106.011 253.067 106.386C252.636 106.762 252.055 106.949 251.324 106.949C250.593 106.949 250.021 106.762 249.581 106.386C249.14 106.011 248.812 105.542 248.587 104.979C248.363 104.416 248.213 103.805 248.147 103.158C248.091 102.642 248.063 102.163 248.053 101.703C247.669 101.666 247.294 101.647 246.91 101.619C246.92 102.276 246.966 102.951 247.069 103.637C247.182 104.416 247.397 105.11 247.725 105.748C248.044 106.377 248.494 106.893 249.075 107.297C249.656 107.7 250.405 107.897 251.324 107.897C252.242 107.897 253.01 107.7 253.582 107.297C254.154 106.893 254.603 106.386 254.922 105.748C255.241 105.119 255.456 104.416 255.578 103.637C255.606 103.43 255.625 103.224 255.643 103.017C255.269 102.923 254.903 102.829 254.528 102.745H254.538Z" fill="#00ADEE"/>
<path d="M261.661 105.026C261.605 104.997 261.548 104.979 261.492 104.96V107.644H262.635V105.485C262.307 105.326 261.989 105.176 261.661 105.035V105.026Z" fill="#00ADEE"/>
<path d="M224.675 112.946C224.357 112.318 223.907 111.801 223.335 111.388C223.167 111.266 222.97 111.173 222.773 111.088C222.576 111.37 222.389 111.661 222.211 111.952C222.436 112.045 222.642 112.158 222.82 112.308C223.251 112.684 223.588 113.153 223.813 113.707C224.038 114.26 224.188 114.87 224.254 115.527C224.329 116.184 224.366 116.785 224.366 117.329C224.366 117.873 224.329 118.493 224.254 119.14C224.179 119.788 224.029 120.398 223.813 120.961C223.598 121.524 223.26 121.993 222.82 122.369C222.389 122.744 221.808 122.932 221.077 122.932C220.346 122.932 219.775 122.744 219.334 122.369C218.894 121.993 218.566 121.524 218.341 120.961C218.172 120.539 218.06 120.088 217.975 119.619C217.713 120.079 217.441 120.529 217.16 120.97C217.254 121.233 217.348 121.496 217.469 121.731C217.788 122.359 218.238 122.875 218.819 123.279C219.4 123.683 220.149 123.88 221.068 123.88C221.986 123.88 222.754 123.683 223.326 123.279C223.898 122.875 224.347 122.369 224.666 121.731C224.985 121.102 225.2 120.398 225.322 119.619C225.434 118.84 225.491 118.08 225.491 117.329C225.491 116.578 225.434 115.837 225.322 115.058C225.209 114.279 224.985 113.584 224.666 112.946H224.675Z" fill="#00ADEE"/>
<path d="M229.228 113.256C229.631 113.218 229.987 113.115 230.278 112.956C230.578 112.796 230.821 112.562 231.018 112.242C231.215 111.923 231.355 111.473 231.449 110.891H232.377V123.607H231.234V114.157H227.879V113.34C228.376 113.331 228.825 113.303 229.228 113.256Z" fill="#00ADEE"/>
<path d="M243.509 111.388C244.081 111.792 244.531 112.308 244.849 112.946C245.168 113.575 245.383 114.279 245.505 115.058C245.618 115.837 245.674 116.588 245.674 117.329C245.674 118.07 245.618 118.84 245.505 119.619C245.393 120.398 245.168 121.092 244.849 121.731C244.531 122.359 244.081 122.875 243.509 123.279C242.938 123.683 242.179 123.88 241.251 123.88C240.323 123.88 239.583 123.683 239.002 123.279C238.421 122.875 237.971 122.369 237.653 121.731C237.334 121.102 237.119 120.398 236.997 119.619C236.884 118.84 236.828 118.089 236.828 117.348C236.828 116.606 236.884 115.837 236.997 115.058C237.109 114.279 237.325 113.585 237.653 112.946C237.971 112.318 238.421 111.801 239.002 111.388C239.583 110.985 240.333 110.778 241.251 110.778C242.169 110.778 242.938 110.985 243.509 111.388V111.388ZM239.508 112.308C239.077 112.684 238.74 113.153 238.515 113.707C238.29 114.26 238.14 114.87 238.074 115.527C237.999 116.184 237.962 116.785 237.962 117.329C237.962 117.873 237.999 118.493 238.074 119.14C238.149 119.788 238.299 120.398 238.515 120.961C238.73 121.524 239.068 121.993 239.508 122.369C239.948 122.744 240.52 122.932 241.251 122.932C241.982 122.932 242.553 122.744 242.994 122.369C243.425 121.993 243.762 121.524 243.987 120.961C244.212 120.398 244.362 119.788 244.428 119.14C244.503 118.493 244.54 117.892 244.54 117.329C244.54 116.766 244.503 116.184 244.428 115.527C244.353 114.87 244.203 114.27 243.987 113.707C243.772 113.143 243.434 112.684 242.994 112.308C242.563 111.933 241.982 111.745 241.251 111.745C240.52 111.745 239.948 111.933 239.508 112.308V112.308Z" fill="#00ADEE"/>
<path d="M249.404 113.256C249.807 113.218 250.163 113.115 250.454 112.956C250.753 112.796 250.997 112.562 251.194 112.242C251.391 111.923 251.531 111.473 251.625 110.891H252.553V123.607H251.409V114.157H248.055V113.34C248.551 113.331 249.001 113.303 249.404 113.256Z" fill="#00ADEE"/>
<path d="M259.486 113.256C259.889 113.218 260.245 113.115 260.536 112.956C260.835 112.796 261.079 112.562 261.276 112.242C261.473 111.923 261.613 111.473 261.707 110.891H262.635V123.607H261.491V114.157H258.137V113.34C258.633 113.331 259.083 113.303 259.486 113.256Z" fill="#00ADEE"/>
<path d="M274.687 115.583C274.753 116.212 274.79 116.794 274.79 117.32C274.79 117.873 274.753 118.483 274.678 119.131C274.603 119.778 274.453 120.388 274.237 120.952C274.022 121.515 273.684 121.984 273.244 122.359C272.813 122.735 272.232 122.922 271.501 122.922C270.77 122.922 270.199 122.735 269.758 122.359C269.318 121.984 268.99 121.515 268.765 120.952C268.54 120.388 268.39 119.778 268.324 119.131C268.249 118.483 268.212 117.883 268.212 117.32C268.212 116.757 268.249 116.175 268.324 115.518C268.399 114.861 268.549 114.26 268.765 113.697C268.98 113.134 269.318 112.674 269.758 112.299C270.114 111.989 270.573 111.82 271.117 111.764C270.826 111.482 270.536 111.21 270.236 110.929C269.871 111.032 269.533 111.182 269.252 111.379C268.671 111.783 268.221 112.299 267.903 112.937C267.584 113.566 267.369 114.27 267.247 115.049C267.134 115.827 267.078 116.588 267.078 117.338C267.078 118.089 267.134 118.831 267.247 119.61C267.359 120.388 267.575 121.083 267.903 121.721C268.221 122.35 268.671 122.866 269.252 123.27C269.833 123.673 270.583 123.87 271.501 123.87C272.419 123.87 273.188 123.673 273.759 123.27C274.331 122.866 274.781 122.359 275.099 121.721C275.418 121.092 275.633 120.388 275.755 119.61C275.868 118.831 275.924 118.07 275.924 117.32C275.924 117.245 275.924 117.169 275.924 117.094C275.53 116.597 275.118 116.09 274.687 115.583V115.583Z" fill="#00ADEE"/>
<path d="M219.146 129.229C219.549 129.191 219.905 129.088 220.196 128.929C220.496 128.769 220.739 128.535 220.936 128.215C221.133 127.896 221.273 127.446 221.367 126.864H222.295V139.58H221.152V130.13H217.797V129.313C218.294 129.304 218.743 129.276 219.146 129.229V129.229Z" fill="#00ADEE"/>
<path d="M229.228 129.229C229.631 129.191 229.987 129.088 230.278 128.929C230.578 128.769 230.821 128.535 231.018 128.215C231.215 127.896 231.355 127.446 231.449 126.864H232.377V139.58H231.234V130.13H227.879V129.313C228.376 129.304 228.825 129.276 229.228 129.229V129.229Z" fill="#00ADEE"/>
<path d="M243.509 127.361C244.081 127.765 244.531 128.281 244.849 128.919C245.168 129.548 245.383 130.252 245.505 131.031C245.618 131.81 245.674 132.561 245.674 133.302C245.674 134.043 245.618 134.813 245.505 135.592C245.393 136.371 245.168 137.065 244.849 137.703C244.531 138.332 244.081 138.848 243.509 139.252C242.938 139.656 242.179 139.853 241.251 139.853C240.323 139.853 239.583 139.656 239.002 139.252C238.421 138.848 237.971 138.342 237.653 137.703C237.334 137.075 237.119 136.371 236.997 135.592C236.884 134.813 236.828 134.062 236.828 133.321C236.828 132.579 236.884 131.81 236.997 131.031C237.109 130.252 237.325 129.557 237.653 128.919C237.971 128.291 238.421 127.774 239.002 127.361C239.583 126.958 240.333 126.751 241.251 126.751C242.169 126.751 242.938 126.958 243.509 127.361ZM239.508 128.281C239.077 128.657 238.74 129.126 238.515 129.679C238.29 130.233 238.14 130.843 238.074 131.5C237.999 132.157 237.962 132.758 237.962 133.302C237.962 133.846 237.999 134.466 238.074 135.113C238.149 135.761 238.299 136.371 238.515 136.934C238.73 137.497 239.068 137.966 239.508 138.342C239.948 138.717 240.52 138.905 241.251 138.905C241.982 138.905 242.553 138.717 242.994 138.342C243.425 137.966 243.762 137.497 243.987 136.934C244.212 136.371 244.362 135.761 244.428 135.113C244.503 134.466 244.54 133.865 244.54 133.302C244.54 132.739 244.503 132.157 244.428 131.5C244.353 130.843 244.203 130.243 243.987 129.679C243.772 129.116 243.434 128.657 242.994 128.281C242.563 127.906 241.982 127.718 241.251 127.718C240.52 127.718 239.948 127.906 239.508 128.281V128.281Z" fill="#00ADEE"/>
<path d="M249.404 129.229C249.807 129.191 250.163 129.088 250.454 128.929C250.753 128.769 250.997 128.535 251.194 128.215C251.391 127.896 251.531 127.446 251.625 126.864H252.553V139.58H251.409V130.13H248.055V129.313C248.551 129.304 249.001 129.276 249.404 129.229V129.229Z" fill="#00ADEE"/>
<path d="M263.673 127.361C264.245 127.765 264.695 128.281 265.013 128.919C265.332 129.548 265.547 130.252 265.669 131.031C265.782 131.81 265.838 132.561 265.838 133.302C265.838 134.043 265.782 134.813 265.669 135.592C265.557 136.371 265.332 137.065 265.013 137.703C264.695 138.332 264.245 138.848 263.673 139.252C263.102 139.656 262.343 139.853 261.415 139.853C260.487 139.853 259.747 139.656 259.166 139.252C258.585 138.848 258.135 138.342 257.817 137.703C257.498 137.075 257.283 136.371 257.161 135.592C257.048 134.813 256.992 134.062 256.992 133.321C256.992 132.579 257.048 131.81 257.161 131.031C257.273 130.252 257.489 129.557 257.817 128.919C258.135 128.291 258.585 127.774 259.166 127.361C259.747 126.958 260.497 126.751 261.415 126.751C262.333 126.751 263.102 126.958 263.673 127.361ZM259.672 128.281C259.241 128.657 258.904 129.126 258.679 129.679C258.454 130.233 258.304 130.843 258.238 131.5C258.163 132.157 258.126 132.758 258.126 133.302C258.126 133.846 258.163 134.466 258.238 135.113C258.313 135.761 258.463 136.371 258.679 136.934C258.894 137.497 259.232 137.966 259.672 138.342C260.113 138.717 260.684 138.905 261.415 138.905C262.146 138.905 262.718 138.717 263.158 138.342C263.589 137.966 263.926 137.497 264.151 136.934C264.376 136.371 264.526 135.761 264.592 135.113C264.667 134.466 264.704 133.865 264.704 133.302C264.704 132.739 264.667 132.157 264.592 131.5C264.517 130.843 264.367 130.243 264.151 129.679C263.936 129.116 263.598 128.657 263.158 128.281C262.727 127.906 262.146 127.718 261.415 127.718C260.684 127.718 260.113 127.906 259.672 128.281Z" fill="#00ADEE"/>
<path d="M269.568 129.229C269.971 129.191 270.327 129.088 270.618 128.929C270.917 128.769 271.161 128.535 271.358 128.215C271.555 127.896 271.695 127.446 271.789 126.864H272.717V139.58H271.573V130.13H268.219V129.313C268.715 129.304 269.165 129.276 269.568 129.229V129.229Z" fill="#00ADEE"/>
<path d="M219.146 145.202C219.549 145.164 219.905 145.061 220.196 144.902C220.496 144.742 220.739 144.507 220.936 144.188C221.133 143.869 221.273 143.419 221.367 142.837H222.295V155.553H221.152V146.103H217.797V145.286C218.294 145.277 218.743 145.249 219.146 145.202V145.202Z" fill="#00ADEE"/>
<path d="M229.228 145.202C229.631 145.164 229.987 145.061 230.278 144.902C230.578 144.742 230.821 144.507 231.018 144.188C231.215 143.869 231.355 143.419 231.449 142.837H232.377V155.553H231.234V146.103H227.879V145.286C228.376 145.277 228.825 145.249 229.228 145.202V145.202Z" fill="#00ADEE"/>
<path d="M239.31 145.202C239.713 145.164 240.069 145.061 240.36 144.902C240.66 144.742 240.903 144.507 241.1 144.188C241.297 143.869 241.437 143.419 241.531 142.837H242.459V155.553H241.316V146.103H237.961V145.286C238.458 145.277 238.907 145.249 239.31 145.202V145.202Z" fill="#00ADEE"/>
<path d="M249.404 145.202C249.807 145.164 250.163 145.061 250.454 144.902C250.753 144.742 250.997 144.507 251.194 144.188C251.391 143.869 251.531 143.419 251.625 142.837H252.553V155.553H251.409V146.103H248.055V145.286C248.551 145.277 249.001 145.249 249.404 145.202V145.202Z" fill="#00ADEE"/>
<path d="M263.673 143.334C264.245 143.738 264.695 144.254 265.013 144.892C265.332 145.521 265.547 146.225 265.669 147.004C265.782 147.783 265.838 148.534 265.838 149.275C265.838 150.016 265.782 150.786 265.669 151.565C265.557 152.344 265.332 153.038 265.013 153.676C264.695 154.305 264.245 154.821 263.673 155.225C263.102 155.628 262.343 155.826 261.415 155.826C260.487 155.826 259.747 155.628 259.166 155.225C258.585 154.821 258.135 154.315 257.817 153.676C257.498 153.048 257.283 152.344 257.161 151.565C257.048 150.786 256.992 150.035 256.992 149.294C256.992 148.552 257.048 147.783 257.161 147.004C257.273 146.225 257.489 145.53 257.817 144.892C258.135 144.263 258.585 143.747 259.166 143.334C259.747 142.931 260.497 142.724 261.415 142.724C262.333 142.724 263.102 142.931 263.673 143.334ZM259.672 144.254C259.241 144.629 258.904 145.099 258.679 145.652C258.454 146.206 258.304 146.816 258.238 147.473C258.163 148.13 258.126 148.731 258.126 149.275C258.126 149.819 258.163 150.439 258.238 151.086C258.313 151.734 258.463 152.344 258.679 152.907C258.894 153.47 259.232 153.939 259.672 154.315C260.113 154.69 260.684 154.878 261.415 154.878C262.146 154.878 262.718 154.69 263.158 154.315C263.589 153.939 263.926 153.47 264.151 152.907C264.376 152.344 264.526 151.734 264.592 151.086C264.667 150.439 264.704 149.838 264.704 149.275C264.704 148.712 264.667 148.13 264.592 147.473C264.517 146.816 264.367 146.216 264.151 145.652C263.936 145.089 263.598 144.629 263.158 144.254C262.727 143.879 262.146 143.691 261.415 143.691C260.684 143.691 260.113 143.879 259.672 144.254Z" fill="#00ADEE"/>
<path d="M267.901 153.658C268.22 154.286 268.67 154.803 269.251 155.206C269.532 155.403 269.86 155.553 270.234 155.647C270.487 155.375 270.731 155.103 270.975 154.821C270.487 154.746 270.085 154.577 269.766 154.296C269.335 153.92 268.998 153.451 268.773 152.888C268.548 152.325 268.398 151.715 268.332 151.067C268.257 150.42 268.22 149.819 268.22 149.256C268.22 148.693 268.257 148.111 268.332 147.454C268.407 146.797 268.557 146.197 268.773 145.634C268.988 145.071 269.325 144.611 269.766 144.235C270.206 143.86 270.778 143.672 271.509 143.672C272.24 143.672 272.811 143.86 273.252 144.235C273.683 144.611 274.02 145.08 274.245 145.634C274.47 146.187 274.62 146.797 274.685 147.454C274.76 148.111 274.798 148.712 274.798 149.256C274.798 149.406 274.788 149.575 274.779 149.735C275.135 149.331 275.51 148.993 275.913 148.721C275.894 148.158 275.847 147.586 275.763 146.994C275.651 146.216 275.426 145.521 275.107 144.883C274.788 144.254 274.339 143.738 273.767 143.325C273.195 142.921 272.436 142.715 271.509 142.715C270.581 142.715 269.841 142.921 269.26 143.325C268.679 143.729 268.229 144.245 267.911 144.883C267.592 145.512 267.376 146.216 267.255 146.994C267.142 147.773 267.086 148.534 267.086 149.284C267.086 150.035 267.142 150.777 267.255 151.555C267.367 152.334 267.583 153.029 267.911 153.667L267.901 153.658Z" fill="#00ADEE"/>
<path d="M228.115 162.705C228.199 162.329 228.293 161.963 228.434 161.625C228.659 161.072 228.987 160.602 229.427 160.227C229.867 159.852 230.439 159.664 231.17 159.664C231.901 159.664 232.472 159.852 232.913 160.227C233.344 160.602 233.681 161.072 233.906 161.625C234.131 162.179 234.281 162.789 234.346 163.446C234.412 164.065 234.45 164.629 234.45 165.145C234.824 165.257 235.209 165.361 235.583 165.464C235.583 165.389 235.583 165.323 235.583 165.248C235.583 164.507 235.527 163.756 235.415 162.977C235.302 162.198 235.077 161.503 234.759 160.865C234.44 160.236 233.99 159.72 233.419 159.307C232.847 158.904 232.088 158.697 231.161 158.697C230.233 158.697 229.493 158.904 228.912 159.307C228.331 159.711 227.881 160.227 227.562 160.865C227.356 161.269 227.206 161.71 227.094 162.17C227.431 162.348 227.778 162.536 228.124 162.714L228.115 162.705Z" fill="#00ADEE"/>
<path d="M237.992 165.999C237.974 165.736 237.964 165.473 237.964 165.229C237.964 164.685 238.002 164.084 238.077 163.427C238.152 162.77 238.302 162.17 238.517 161.607C238.733 161.044 239.07 160.584 239.51 160.208C239.951 159.833 240.522 159.645 241.253 159.645C241.984 159.645 242.556 159.833 242.996 160.208C243.427 160.584 243.765 161.053 243.99 161.607C244.214 162.16 244.364 162.77 244.43 163.427C244.505 164.084 244.542 164.685 244.542 165.229C244.542 165.689 244.514 166.177 244.467 166.693C244.852 166.693 245.226 166.693 245.611 166.693C245.657 166.205 245.686 165.717 245.686 165.239C245.686 164.497 245.629 163.746 245.517 162.967C245.404 162.188 245.18 161.494 244.861 160.856C244.542 160.227 244.093 159.711 243.521 159.298C242.949 158.894 242.19 158.688 241.263 158.688C240.335 158.688 239.595 158.894 239.014 159.298C238.433 159.701 237.983 160.218 237.664 160.856C237.346 161.485 237.13 162.188 237.009 162.967C236.896 163.746 236.84 164.507 236.84 165.257C236.84 165.426 236.849 165.605 236.859 165.773C237.243 165.858 237.627 165.933 238.002 166.008L237.992 165.999Z" fill="#00ADEE"/>
<path d="M251.409 166.13C251.793 166.055 252.178 165.989 252.553 165.914V158.81H251.625C251.541 159.392 251.4 159.842 251.194 160.161C250.997 160.48 250.744 160.724 250.454 160.875C250.154 161.034 249.807 161.128 249.404 161.175C249.001 161.222 248.551 161.241 248.055 161.259V162.076H251.409V166.13Z" fill="#00ADEE"/>
<path d="M261.491 162.517C261.876 162.301 262.26 162.076 262.635 161.841V158.801H261.707C261.623 159.382 261.482 159.833 261.276 160.152C261.079 160.471 260.826 160.715 260.536 160.865C260.236 161.025 259.889 161.119 259.486 161.166C259.083 161.212 258.633 161.231 258.137 161.25V162.066H261.491V162.517V162.517Z" fill="#00ADEE"/>
<g opacity="0.3">
<path d="M246.311 165.342C263.772 165.342 277.927 151.165 277.927 133.677C277.927 116.19 263.772 102.013 246.311 102.013C228.85 102.013 214.695 116.19 214.695 133.677C214.695 151.165 228.85 165.342 246.311 165.342Z" fill="#00ADEE"/>
</g>
<path d="M228.059 137.872C226.016 137.872 224.367 136.221 224.367 134.175C224.367 121.74 234.469 111.632 246.875 111.632C248.918 111.632 250.567 113.284 250.567 115.33C250.567 117.376 248.918 119.028 246.875 119.028C238.535 119.028 231.751 125.822 231.751 134.175C231.751 136.221 230.102 137.872 228.059 137.872Z" fill="white"/>
<path d="M302.469 148.083C302.169 147.548 301.673 147.154 301.092 146.985L292.968 144.667C293.014 144.461 293.071 144.254 293.117 144.048C294.757 136.624 294.589 128.863 292.64 121.468L300.745 118.924C301.326 118.737 301.813 118.333 302.094 117.789C302.375 117.245 302.432 116.616 302.254 116.034C299.527 107.334 294.739 99.2539 288.413 92.6939C287.533 91.7742 286.08 91.7554 285.162 92.6376L279.062 98.5312C273.318 93.1068 266.374 89.2027 258.765 87.1287L260.518 78.8325C260.78 77.5937 259.993 76.3737 258.765 76.1109C249.816 74.1307 240.437 74.2809 231.619 76.5332C230.382 76.8429 229.642 78.1005 229.96 79.3393L232.059 87.5792C224.563 89.8784 217.769 93.9421 212.203 99.4697L205.944 93.7168C205.007 92.8628 203.554 92.9191 202.692 93.8576C196.526 100.587 191.954 108.798 189.471 117.601C189.124 118.831 189.836 120.098 191.063 120.445L199.188 122.744C199.141 122.922 199.103 123.091 199.066 123.27C197.426 130.721 197.604 138.511 199.563 145.925L191.466 148.487C190.885 148.674 190.398 149.078 190.117 149.622C189.836 150.167 189.78 150.795 189.967 151.377C192.713 160.077 197.52 168.148 203.854 174.698C204.735 175.609 206.187 175.637 207.106 174.755L213.187 168.852C218.931 174.257 225.856 178.143 233.456 180.207L231.666 188.475C231.394 189.714 232.181 190.944 233.418 191.216C237.044 192.013 240.671 192.473 244.297 192.586C249.713 192.755 255.111 192.173 260.443 190.822C261.033 190.671 261.539 190.296 261.858 189.77C262.167 189.245 262.26 188.616 262.111 188.025L260.03 179.776C267.527 177.495 274.33 173.441 279.905 167.923L286.165 173.694C286.614 174.107 287.214 174.342 287.814 174.304C288.423 174.276 288.994 174.013 289.407 173.563C295.582 166.843 300.173 158.641 302.675 149.838C302.844 149.247 302.769 148.618 302.469 148.083V148.083ZM245.159 162.479C229.295 161.973 216.804 148.637 217.31 132.748C217.816 116.86 231.132 104.35 246.987 104.847C262.841 105.345 275.342 118.69 274.845 134.578C274.348 150.467 261.024 162.977 245.159 162.47V162.479Z" fill="#F4F4F4"/>
<path d="M244.278 192.595C240.652 192.483 237.016 192.023 233.399 191.225C232.162 190.953 231.375 189.733 231.647 188.485L233.437 180.217C225.847 178.152 218.912 174.267 213.168 168.861L207.087 174.764C206.169 175.646 204.716 175.618 203.835 174.708C197.501 168.157 192.694 160.086 189.948 151.387C189.761 150.805 189.817 150.176 190.098 149.632C190.379 149.087 190.867 148.684 191.448 148.496L199.544 145.934C197.576 138.52 197.398 130.731 199.047 123.279C199.084 123.101 199.131 122.922 199.169 122.754L191.045 120.454C189.817 120.107 189.114 118.831 189.452 117.611C191.935 108.808 196.508 100.596 202.673 93.8671C203.526 92.9286 204.988 92.8629 205.925 93.7263L212.184 99.4792C217.75 93.9515 224.544 89.8879 232.04 87.5886L229.941 79.3487C229.632 78.1193 230.373 76.8618 231.6 76.5427C240.408 74.2903 249.798 74.1402 258.746 76.1204C259.983 76.3925 260.761 77.6126 260.499 78.842L258.746 87.1381C266.355 89.2122 273.299 93.1163 279.043 98.5407L285.143 92.647C286.061 91.7649 287.514 91.7836 288.395 92.7033C294.72 99.2727 299.508 107.344 302.235 116.043C302.413 116.625 302.357 117.254 302.075 117.798C301.794 118.343 301.307 118.746 300.726 118.934L292.621 121.477C294.56 128.872 294.729 136.624 293.099 144.057C293.052 144.264 293.005 144.47 292.949 144.676L301.073 146.995C301.663 147.163 302.16 147.558 302.45 148.093C302.75 148.627 302.816 149.256 302.656 149.848C300.154 158.65 295.563 166.853 289.388 173.572C288.975 174.023 288.404 174.286 287.795 174.314C287.186 174.351 286.586 174.117 286.146 173.704L279.886 167.932C274.311 173.45 267.508 177.505 260.011 179.785L262.092 188.034C262.242 188.626 262.148 189.254 261.839 189.78C261.529 190.305 261.014 190.681 260.424 190.831C255.082 192.182 249.685 192.764 244.278 192.595V192.595ZM236.632 187.171C243.454 188.391 250.304 188.288 257.06 186.88L255.008 178.725C254.698 177.495 255.439 176.238 256.675 175.928C264.931 173.835 272.343 169.415 278.115 163.146C278.977 162.207 280.439 162.151 281.367 163.014L287.542 168.711C291.974 163.446 295.404 157.318 297.568 150.777L289.491 148.477C288.901 148.308 288.404 147.914 288.113 147.379C287.814 146.844 287.748 146.216 287.907 145.624L288.113 144.93C288.291 144.31 288.479 143.7 288.619 143.062C290.25 135.676 289.894 127.925 287.607 120.642C287.42 120.06 287.476 119.431 287.757 118.887C288.038 118.343 288.526 117.939 289.107 117.751L297.118 115.236C294.785 108.77 291.206 102.736 286.652 97.5928L280.626 103.411C280.186 103.834 279.596 104.068 278.987 104.059C278.443 104.087 277.797 103.796 277.375 103.355C271.434 97.1799 263.881 92.938 255.542 91.0798C254.314 90.8076 253.527 89.5876 253.789 88.3582L255.523 80.1652C248.729 78.964 241.701 79.0672 234.983 80.4749L237.054 88.6209C237.363 89.8504 236.623 91.1079 235.395 91.427C227.149 93.5292 219.737 97.9682 213.984 104.247C213.121 105.185 211.669 105.241 210.732 104.387L204.547 98.7096C200.125 103.984 196.704 110.112 194.559 116.663L202.636 118.943C203.854 119.291 204.566 120.557 204.229 121.787L204.004 122.556C203.835 123.12 203.676 123.692 203.545 124.274C201.914 131.678 202.27 139.459 204.585 146.76C204.772 147.342 204.716 147.98 204.435 148.515C204.154 149.059 203.667 149.463 203.086 149.65L195.093 152.184C197.445 158.65 201.034 164.676 205.597 169.818L211.613 163.99C212.053 163.568 212.644 163.333 213.253 163.343C213.843 163.418 214.443 163.606 214.874 164.047C220.824 170.203 228.358 174.426 236.688 176.275C237.925 176.547 238.703 177.767 238.44 179.016L236.679 187.19L236.632 187.171Z" fill="#354185"/>
<path d="M245.009 167.087C226.615 166.505 212.118 151.03 212.709 132.608C213.29 114.185 228.742 99.6668 247.136 100.249C265.53 100.831 280.026 116.306 279.445 134.728C278.864 153.151 263.413 167.669 245.018 167.087H245.009ZM246.986 104.857C231.122 104.35 217.806 116.869 217.31 132.758C216.804 148.646 229.295 161.982 245.159 162.489C261.023 162.996 274.338 150.476 274.844 134.597C275.351 118.718 262.85 105.373 246.986 104.866V104.857Z" fill="#354185"/>
<path opacity="0.1" d="M301.083 146.994L292.959 144.676C293.006 144.47 293.062 144.263 293.109 144.057C293.174 143.775 293.212 143.494 293.268 143.212H198.907C199.095 144.123 199.301 145.033 199.544 145.934L191.448 148.496C190.867 148.684 190.38 149.087 190.099 149.632C189.818 150.176 189.762 150.805 189.949 151.387C192.695 160.086 197.502 168.157 203.836 174.708C204.717 175.618 206.169 175.646 207.088 174.764L213.178 168.861C218.923 174.267 225.847 178.152 233.447 180.217L231.657 188.485C231.385 189.724 232.172 190.953 233.409 191.225C237.036 192.023 240.662 192.483 244.289 192.595C249.705 192.764 255.102 192.182 260.434 190.831C261.024 190.681 261.53 190.305 261.849 189.78C262.158 189.254 262.252 188.626 262.102 188.034L260.022 179.785C267.518 177.505 274.321 173.45 279.896 167.932L286.156 173.704C286.606 174.117 287.205 174.351 287.805 174.314C288.414 174.286 288.986 174.023 289.398 173.572C295.573 166.853 300.165 158.65 302.667 149.847C302.835 149.256 302.76 148.627 302.46 148.093C302.161 147.558 301.664 147.163 301.083 146.994V146.994Z" fill="black"/>
<path d="M293.138 325.268H279.082L275.306 306.105L275.203 306.001H274.8C271.126 306.001 271.136 300.296 274.8 300.296H275.399C275.98 300.08 276.617 300.052 277.236 300.296H336.804C345.228 296.382 351.085 287.842 351.085 277.95V177.608C351.085 164.028 340.056 152.982 326.497 152.982H172.127C158.568 152.982 147.539 164.028 147.539 177.608V277.95C147.539 287.279 152.749 295.415 160.405 299.592H222.241C225.408 299.592 225.829 303.824 223.534 304.988L219.542 325.259H205.486C204.334 325.259 203.406 326.188 203.406 327.343V336.512C203.406 337.666 204.334 338.595 205.486 338.595H293.128C294.281 338.595 295.209 337.666 295.209 336.512V327.343C295.209 326.188 294.281 325.259 293.128 325.259L293.138 325.268Z" fill="white"/>
<path d="M169.764 151.846H325.998C337.955 151.846 347.672 161.569 347.672 173.554V175.355H150.18V171.461C150.18 160.64 158.95 151.846 169.764 151.846V151.846Z" fill="#F4F4F4"/>
<path d="M161.192 298.663H337.113C341.836 298.663 345.668 294.824 345.668 290.094L350.354 274.628H147.023L152.646 290.094C152.646 294.824 156.478 298.663 161.201 298.663H161.192Z" fill="#F4F4F4"/>
<path d="M327.188 302.06H170.748C157.011 302.06 145.832 290.864 145.832 277.106V175.421C145.832 161.663 157.011 150.467 170.748 150.467H327.188C340.926 150.467 352.105 161.663 352.105 175.421V277.106C352.105 290.864 340.926 302.06 327.188 302.06V302.06ZM170.748 154.69C159.335 154.69 150.049 163.99 150.049 175.421V277.106C150.049 288.536 159.335 297.837 170.748 297.837H327.188C338.602 297.837 347.888 288.536 347.888 277.106V175.421C347.888 163.99 338.602 154.69 327.188 154.69H170.748V154.69Z" fill="#354185"/>
<path d="M350.053 272.282H147.895V276.505H350.053V272.282Z" fill="#354185"/>
<path d="M248.971 294.092C244.792 294.092 241.391 290.685 241.391 286.5C241.391 282.314 244.792 278.907 248.971 278.907C253.151 278.907 256.552 282.314 256.552 286.5C256.552 290.685 253.151 294.092 248.971 294.092ZM248.971 283.14C247.116 283.14 245.617 284.651 245.617 286.5C245.617 288.349 247.125 289.86 248.971 289.86C250.817 289.86 252.335 288.349 252.335 286.5C252.335 284.651 250.827 283.14 248.971 283.14Z" fill="#354185"/>
<path d="M349.716 174.032H148.223V178.255H349.716V174.032Z" fill="#354185"/>
<path d="M220.806 327.953C220.675 327.953 220.535 327.943 220.394 327.915C219.251 327.69 218.511 326.582 218.736 325.437L223.711 300.211C223.936 299.066 225.042 298.315 226.185 298.55C227.328 298.775 228.069 299.883 227.844 301.028L222.868 326.254C222.671 327.258 221.79 327.953 220.797 327.953H220.806Z" fill="#354185"/>
<path d="M277.142 327.953C276.158 327.953 275.277 327.258 275.071 326.254L270.095 301.028C269.87 299.883 270.61 298.775 271.754 298.55C272.897 298.315 274.002 299.066 274.227 300.211L279.203 325.437C279.428 326.582 278.688 327.69 277.544 327.915C277.404 327.943 277.273 327.953 277.132 327.953H277.142Z" fill="#354185"/>
<path d="M293.379 338.567H204.565C203.403 338.567 202.457 337.619 202.457 336.455V327.164C202.457 326 203.403 325.053 204.565 325.053H293.379C294.541 325.053 295.487 326 295.487 327.164V336.455C295.487 337.619 294.541 338.567 293.379 338.567ZM206.674 334.344H291.27V329.276H206.674V334.344Z" fill="#354185"/>
<path d="M216.89 235.55H160.461V240.833H216.89V235.55Z" fill="#F4F4F4"/>
<path d="M283.608 189.179H160.695V214.002H283.608V189.179Z" fill="#00ADEE"/>
<path d="M216.89 223.931H160.461V229.215H216.89V223.931Z" fill="#F4F4F4"/>
<path d="M277.011 201.201H253.547V209.938H277.011V201.201Z" fill="#FFC10D"/>
<path d="M284.394 223.931H227.965V229.215H284.394V223.931Z" fill="#F4F4F4"/>
<path d="M284.394 235.55H227.965V240.833H284.394V235.55Z" fill="#F4F4F4"/>
<g opacity="0.1">
<path d="M272.522 300.868H224.18V306.855H272.522V300.868Z" fill="black"/>
</g>
<path d="M338.181 189.226H293.203V262.428H338.181V189.226Z" fill="#00ADEE"/>
<path d="M328.546 249.064H305.082V257.801H328.546V249.064Z" fill="#FFC10D"/>
<path d="M284.768 248.313H160.141V262.39H284.768V248.313Z" fill="#F4F4F4"/>
<path d="M383.281 234.076H342.753C334.996 234.076 328.707 240.375 328.707 248.144V341.692C328.707 349.461 334.996 355.76 342.753 355.76H383.281C391.038 355.76 397.327 349.461 397.327 341.692V248.144C397.327 240.375 391.038 234.076 383.281 234.076Z" fill="white"/>
<path d="M388.47 272.469H337.438C335.554 272.469 334.027 273.999 334.027 275.886V293.088C334.027 294.975 335.554 296.504 337.438 296.504H388.47C390.354 296.504 391.881 294.975 391.881 293.088V275.886C391.881 273.999 390.354 272.469 388.47 272.469Z" fill="#00ADEE"/>
<path d="M396.118 252.367H330.309V262.212H396.118V252.367Z" fill="#DDDDDC"/>
<path d="M383.804 357.214H342.442C334.534 357.214 328.105 350.776 328.105 342.856V247.374C328.105 239.454 334.534 233.016 342.442 233.016H383.804C391.712 233.016 398.14 239.454 398.14 247.374V342.856C398.14 350.776 391.712 357.214 383.804 357.214ZM342.442 236.225C336.305 236.225 331.31 241.227 331.31 247.374V342.856C331.31 349.003 336.305 354.005 342.442 354.005H383.804C389.941 354.005 394.936 349.003 394.936 342.856V247.374C394.936 241.227 389.941 236.225 383.804 236.225H342.442V236.225Z" fill="#354185"/>
<path d="M395.562 337.994L330.68 337.807C329.79 337.807 329.078 337.084 329.078 336.192C329.078 335.31 329.8 334.588 330.68 334.588L395.562 334.775C396.452 334.775 397.164 335.498 397.164 336.389C397.164 337.272 396.443 337.994 395.562 337.994Z" fill="#354185"/>
<path d="M395.562 252.771L330.68 252.583C329.79 252.583 329.078 251.86 329.078 250.969C329.078 250.087 329.8 249.364 330.68 249.364L395.562 249.552C396.452 249.552 397.164 250.274 397.164 251.166C397.164 252.048 396.443 252.771 395.562 252.771Z" fill="#354185"/>
<path d="M395.562 264.52L330.68 264.333C329.79 264.333 329.078 263.61 329.078 262.719C329.078 261.836 329.8 261.114 330.68 261.114L395.562 261.302C396.452 261.302 397.164 262.024 397.164 262.916C397.164 263.798 396.443 264.52 395.562 264.52Z" fill="#354185"/>
<path d="M363.122 351.827C359.946 351.827 357.359 349.294 357.359 346.178C357.359 343.062 359.946 340.528 363.122 340.528C366.299 340.528 368.885 343.062 368.885 346.178C368.885 349.294 366.299 351.827 363.122 351.827ZM363.122 343.747C361.717 343.747 360.564 344.836 360.564 346.178C360.564 347.52 361.707 348.608 363.122 348.608C364.537 348.608 365.68 347.52 365.68 346.178C365.68 344.836 364.537 343.747 363.122 343.747Z" fill="#354185"/>
<path d="M385.135 285.111H370.395C369.536 285.111 368.84 285.808 368.84 286.669V290.197C368.84 291.058 369.536 291.755 370.395 291.755H385.135C385.994 291.755 386.691 291.058 386.691 290.197V286.669C386.691 285.808 385.994 285.111 385.135 285.111Z" fill="#FFC10D"/>
<path d="M377.057 304.819H334.121V308.836H377.057V304.819Z" fill="#F4F4F4"/>
<path d="M377.057 313.659H334.121V317.676H377.057V313.659Z" fill="#F4F4F4"/>
<path d="M80.1523 343.663C86.4453 343.663 91.5468 326.944 91.5468 306.321C91.5468 285.697 86.4453 268.978 80.1523 268.978C73.8593 268.978 68.7578 285.697 68.7578 306.321C68.7578 326.944 73.8593 343.663 80.1523 343.663Z" fill="#F4F4F4"/>
<path d="M166.453 320.848H181.193C181.98 320.848 182.617 320.21 182.617 319.422V291.155C182.617 290.367 181.98 289.728 181.193 289.728H166.453C165.666 289.728 165.029 290.367 165.029 291.155V319.422C165.029 320.21 165.666 320.848 166.453 320.848Z" fill="#00ADEE"/>
<path d="M85.1758 268.997L85.2601 275.642C90.4607 284.923 92.3255 295.49 91.5571 306.086C91.1354 311.858 89.9266 317.526 89.3738 323.279C88.9052 328.168 89.2051 333.189 87.4247 337.844C87.0874 338.717 86.6282 339.44 86.0941 340.04L86.1222 342.208L164.834 322.5V289.653L85.1852 269.006L85.1758 268.997Z" fill="white"/>
<path d="M146.395 356.107L162.962 354.033V322.913L146.395 324.987V356.107Z" fill="#F4F4F4" stroke="#231F20" stroke-width="0.5" stroke-miterlimit="10"/>
<path d="M90.5167 320.839H92.2222C92.9999 320.839 91.7349 321.383 91.7349 320.614V291.521C91.7349 290.742 92.9905 289.728 92.2222 289.728H90.5167C81.9334 289.728 74.9805 296.692 74.9805 305.288C74.9805 313.885 81.9334 320.848 90.5167 320.848V320.839Z" fill="#FFC10D"/>
<path d="M80.0309 343.663C86.7379 343.663 92.175 326.604 92.175 305.56C92.175 284.517 86.7379 267.458 80.0309 267.458C73.3238 267.458 67.8867 284.517 67.8867 305.56C67.8867 326.604 73.3238 343.663 80.0309 343.663Z" stroke="#354185" stroke-width="4" stroke-miterlimit="10"/>
<path d="M91.3692 290.16C82.8795 290.16 75.9922 297.058 75.9922 305.56C75.9922 314.063 82.8795 320.961 91.3692 320.961" stroke="#354185" stroke-width="4" stroke-miterlimit="10"/>
<path d="M80.9688 267.458L165.003 289.409" stroke="#354185" stroke-width="4" stroke-miterlimit="10"/>
<path d="M165.003 321.214L80.9688 343.663" stroke="#354185" stroke-width="4" stroke-miterlimit="10"/>
<path d="M165.004 289.409V321.214" stroke="#354185" stroke-width="4" stroke-miterlimit="10"/>
<path d="M179.677 321.214H165.003V289.409H179.677C181.888 289.409 183.688 291.211 183.688 293.426V317.198C183.688 319.412 181.888 321.214 179.677 321.214V321.214Z" stroke="#354185" stroke-width="4" stroke-miterlimit="10"/>
<path d="M146.395 327.07V352.278C146.395 355.225 149.234 357.336 152.045 356.492L159.841 354.981C161.697 354.427 162.971 352.71 162.971 350.767V322.922" stroke="#354185" stroke-width="4" stroke-miterlimit="10"/>
<path d="M136.039 329.144V339.515" stroke="#354185" stroke-width="4" stroke-miterlimit="10" stroke-linecap="round"/>
<path d="M146.393 337.441L136.039 339.515" stroke="#354185" stroke-width="4" stroke-miterlimit="10" stroke-linecap="round"/>
<path d="M56.3431 304.246H35.625V308.395H56.3431V304.246Z" fill="#00ADEE"/>
<path d="M39.1304 282.234L36.8203 285.677L54.0166 297.25L56.3267 293.807L39.1304 282.234Z" fill="#00ADEE"/>
<path d="M54.044 315.388L36.8477 326.961L39.1577 330.404L56.354 318.831L54.044 315.388Z" fill="#00ADEE"/>
<path d="M106.044 233.72C105.473 233.513 104.826 233.419 104.114 233.522C98.6134 234.311 93.0942 236.056 87.5468 237.117C83.9204 237.22 80.2941 237.295 76.6677 237.258C71.9075 237.22 67.1379 237.004 62.4246 236.319C58.3297 235.718 54.8157 233.541 50.777 233.185C48.3032 232.969 46.6165 235.737 47.1788 237.915C48.2002 241.8 50.927 243.667 54.7876 244.231C60.2038 245.028 65.47 246.539 70.9611 246.858C81.5591 247.487 92.5975 247.797 102.633 243.827C103.036 243.667 103.374 243.452 103.673 243.208C105.904 242.644 107.984 241.706 109.708 239.96C112.575 237.051 109.202 232.809 106.044 233.71V233.72Z" fill="#00ADEE"/>
<path d="M68.8249 157.243C60.4008 158.472 52.1454 160.931 46.1483 167.388C42.8874 170.907 48.1442 176.2 51.4239 172.671C56.5964 167.106 63.6149 165.501 70.8114 164.45C75.5435 163.756 73.5289 156.558 68.8249 157.252V157.243Z" fill="#FFC10D"/>
<path d="M83.3591 199.568C82.572 201.708 76.3875 203.322 74.682 203.923C71.646 204.993 68.5444 205.8 65.3959 206.438C60.6919 207.395 62.6878 214.593 67.3824 213.636C72.3207 212.632 77.0809 211.14 81.7005 209.122C85.608 207.414 89.0189 205.743 90.5556 201.558C92.2142 197.044 85.0083 195.092 83.3685 199.568H83.3591Z" fill="#FFC10D"/>
<path d="M78.366 236.329C95.8529 236.329 110.029 233.169 110.029 229.271C110.029 225.373 95.8529 222.214 78.366 222.214C60.8791 222.214 46.7031 225.373 46.7031 229.271C46.7031 233.169 60.8791 236.329 78.366 236.329Z" stroke="#354185" stroke-width="4" stroke-miterlimit="10"/>
<path d="M46.7031 229.271V240.045C46.7031 243.949 60.8807 247.102 78.366 247.102C95.8513 247.102 110.029 243.94 110.029 240.045V229.271" stroke="#354185" stroke-width="4" stroke-miterlimit="10"/>
<path d="M63.28 213.383C60.1409 197.56 53.7315 182.572 44.4453 169.387" stroke="#354185" stroke-width="4" stroke-linecap="round" stroke-linejoin="round"/>
<path d="M91.2019 201.389C81.9251 188.203 75.5063 173.216 72.3672 157.393" stroke="#354185" stroke-width="4" stroke-linecap="round" stroke-linejoin="round"/>
<path d="M44.4545 169.387C43.405 166.937 48.8118 162.273 56.5143 158.96C64.2262 155.647 71.3197 154.953 72.3692 157.393" stroke="#354185" stroke-width="4" stroke-linecap="round" stroke-linejoin="round"/>
<path d="M49.6731 177.27C48.6236 174.82 53.3557 170.447 60.243 167.491C67.1303 164.535 73.5584 164.122 74.6079 166.571" stroke="#354185" stroke-width="4" stroke-linecap="round" stroke-linejoin="round"/>
<path d="M91.1061 201.173C92.1556 203.622 86.7488 208.287 79.0463 211.6C71.3344 214.912 64.2409 215.607 63.1914 213.167" stroke="#354185" stroke-width="4" stroke-linecap="round" stroke-linejoin="round"/>
<path d="M85.888 193.29C86.9375 195.739 82.2054 200.112 75.3181 203.069C68.4308 206.025 62.0026 206.438 60.9531 203.988" stroke="#354185" stroke-width="4" stroke-linecap="round" stroke-linejoin="round"/>
<path d="M54.6682 186.992L2.87749 207.892C1.79989 208.352 1.55626 210.211 2.33401 212.041C3.11176 213.871 4.62978 214.969 5.70738 214.509L57.4981 193.609" stroke="#354185" stroke-width="4" stroke-linecap="round" stroke-linejoin="round"/>
<rect x="405" y="256" width="8" height="4" fill="#00ADEE"/>
<rect x="417" y="256" width="8" height="4" fill="#00ADEE"/>
<rect x="429" y="256" width="8" height="4" fill="#00ADEE"/>
</g>
<defs>
<clipPath id="clip0_244_225">
<rect width="454" height="454" fill="white"/>
</clipPath>
</defs>
</svg>
